<?xml version="1.0" encoding="utf-8"?>
<!-- Generator: Adobe Illustrator 22.0.0, SVG Export Plug-In . SVG Version: 6.00 Build 0)  -->
<svg version="1.1" id="图层_1" xmlns="http://www.w3.org/2000/svg" xmlns:xlink="http://www.w3.org/1999/xlink" x="0px" y="0px"
	 viewBox="0 0 50 50" style="enable-background:new 0 0 50 50;" xml:space="preserve">
<style type="text/css">
	.st0{fill:#BBBBBB;}
</style>
<path class="st0" d="M41.3,17.2v-2.9c0-1.5-1.1-2.7-2.5-2.7h-2.2c-1.3-1.2-3.8-2.2-6.9-2.7V6c0.4-0.2,0.7-0.5,0.7-0.8V3
	c0-0.9-2.2-1.6-4.8-1.6H25c-2.7,0-4.8,0.7-4.8,1.6v2.2c0,0.3,0.2,0.6,0.7,0.8v2.9c-3.3,0.5-6,1.5-7.3,2.8h-1.7
	c-1.4,0-2.5,1.2-2.5,2.7v2.9c0,0.8,0.3,1.5,0.9,2v3c-0.5,0.5-0.9,1.2-0.9,2v2.9c0,0.8,0.3,1.5,0.9,2v11.7c-0.7,0.5-1.1,1.3-1.1,2.2
	V46c0,1.5,1.1,2.7,2.5,2.7h27c1.4,0,2.5-1.2,2.5-2.7v-2.9c0-0.7-0.2-1.3-0.6-1.8V29.1c0.5-0.5,0.9-1.2,0.9-2v-2.9
	c0-0.8-0.3-1.5-0.9-2v-3C41,18.8,41.3,18,41.3,17.2z M36.7,23.5c-0.3-1.3-5.4-3.9-10.2-0.3s-13,0.9-13-1.4c0,0-0.1-5.2-0.1-6.7
	c0.4-1.3,4.7-4.1,11.9-4c7.2,0.1,11.3,3.4,11.3,4.6C36.7,17,36.7,20.9,36.7,23.5z"/>
</svg>
