<?xml version="1.0" encoding="utf-8"?>
<!-- Generator: Adobe Illustrator 22.0.0, SVG Export Plug-In . SVG Version: 6.00 Build 0)  -->
<svg version="1.1" xmlns="http://www.w3.org/2000/svg" xmlns:xlink="http://www.w3.org/1999/xlink" x="0px" y="0px"
	 viewBox="0 0 80 80" style="enable-background:new 0 0 80 80;" xml:space="preserve">
<style type="text/css">
	.st0{fill:#FFFFFF;}
	.st1{fill:#A1A1A1;}
	.st2{fill:#165CC5;}
	.st3{fill:#3F9BF1;}
	.st4{fill:#F88A03;}
</style>
<g id="账单">
</g>
<g id="扫一扫">
</g>
<g id="转账">
</g>
<g id="图层_11">
</g>
<g id="多语言">
</g>
<g id="图层_9">
</g>
<g id="余额">
</g>
<g id="主页">
</g>
<g id="图层_10">
	<g id="图层_7_1_">
		<path class="st2" d="M72.4,32.9c0-0.1,0-0.1,0-0.2c0-0.1,0-0.1-0.1-0.2c0-0.1,0-0.1-0.1-0.2c0-0.1-0.1-0.1-0.1-0.2
			c0-0.1-0.1-0.1-0.1-0.2l-0.1-0.1c0-0.1-0.1-0.1-0.1-0.2l0,0L49.4,11c-0.9-1.1-4.2-3.8-8.4-3.8c-4.2,0-7.6,2.9-8.4,3.8L10,31.7l0,0
			c-0.1,0-0.1,0.1-0.1,0.2L9.8,32c0,0.1-0.1,0.1-0.1,0.2s-0.1,0.1-0.1,0.2c0,0.1,0,0.1-0.1,0.2c0,0.1,0,0.1-0.1,0.2
			c0,0.1,0,0.1,0,0.2c0,0.1,0,0.2,0,0.2l0,0v30.1c0,6.2,5.1,11.3,11.3,11.3h9.9c1,0,1.9-0.8,1.9-1.9v-16c0-1.6,1.2-2.8,2.8-2.8h11.3
			c1.6,0,2.8,1.2,2.8,2.8v16c0,1,0.8,1.9,1.9,1.9h9.9c6.2,0,11.3-5.1,11.3-11.3V33.2l0,0C72.4,33.1,72.4,33,72.4,32.9z M69.4,53.3
			L70,32.5L53,17.8C53,14.1,44.6,9,40.9,9L22,23.5c-3.7,0-10.8,9.8-10.8,13.5v18.8v9.5c-4.1,0,1.9,2.1,1.9-2V34l22-20.1
			c0.1,0,0.1-0.1,0.2-0.2c0.3-0.3,2.8-2.6,5.6-2.5s5,1.9,5.6,2.5l0.1,0.1c0,0,0,0.1,0.1,0.1L68.6,34v29.2
			C68.6,67.4,72.4,61,69.4,53.3z"/>
	</g>
</g>
<g id="图层_7">
</g>
<g id="图层_8">
</g>
<g id="图层_12">
</g>
<g id="图层_13">
</g>
</svg>
