<?xml version="1.0" encoding="utf-8"?>
<!-- Generator: Adobe Illustrator 22.0.0, SVG Export Plug-In . SVG Version: 6.00 Build 0)  -->
<svg version="1.1" xmlns="http://www.w3.org/2000/svg" xmlns:xlink="http://www.w3.org/1999/xlink" x="0px" y="0px"
	 viewBox="0 0 80 80" style="enable-background:new 0 0 80 80;" xml:space="preserve">
<style type="text/css">
	.st0{fill:#FFFFFF;}
	.st1{fill:#A1A1A1;}
	.st2{fill:#165CC5;}
	.st3{fill:#3F9BF1;}
	.st4{fill:#F88A03;}
</style>
<g id="账单">
</g>
<g id="扫一扫">
</g>
<g id="转账">
</g>
<g id="图层_11">
</g>
<g id="多语言">
</g>
<g id="图层_9">
</g>
<g id="余额">
</g>
<g id="主页">
</g>
<g id="图层_10">
</g>
<g id="图层_7">
</g>
<g id="图层_8">
</g>
<g id="图层_12">
	<path class="st2" d="M48.9,63.7l11.7-11.7C71,41.6,71,24.4,60.5,13.9C55.4,8.8,48.6,6,41.4,6s-14,2.8-19.1,7.9S14.4,25.8,14.4,33
		s2.8,14,7.9,19.1l11.6,11.6C27.8,64.2,19,65.8,19,70.4c0,6.8,19.7,7,22,7s22-0.2,22-7C63,66,54.8,64.4,48.9,63.7z M29.4,33.7
		c0-6.6,5.4-12,12-12s12,5.4,12,12c0,6.6-5.4,12-12,12S29.4,40.3,29.4,33.7z M41,73.4c-9.8,0-16.3-1.8-17.8-3c1.3-1,6-2.6,14.3-2.9
		c0,0,0.1,0,0.1,0l2.4,2.4c0.4,0.4,0.9,0.6,1.4,0.6s1-0.2,1.4-0.6l2.3-2.3c8.3,0.4,12.5,2,13.6,2.9C57.3,71.6,50.8,73.4,41,73.4z"/>
</g>
<g id="图层_13">
</g>
</svg>
