<?xml version="1.0" encoding="utf-8"?>
<!-- Generator: Adobe Illustrator 22.0.0, SVG Export Plug-In . SVG Version: 6.00 Build 0)  -->
<svg version="1.1" xmlns="http://www.w3.org/2000/svg" xmlns:xlink="http://www.w3.org/1999/xlink" x="0px" y="0px"
	 viewBox="0 0 80 80" style="enable-background:new 0 0 80 80;" xml:space="preserve">
<style type="text/css">
	.st0{fill:#FFFFFF;}
	.st1{fill:#A1A1A1;}
	.st2{fill:#165CC5;}
	.st3{fill:#3F9BF1;}
	.st4{fill:#F88A03;}
</style>
<g id="账单">
</g>
<g id="扫一扫">
</g>
<g id="转账">
</g>
<g id="图层_11">
	<path class="st2" d="M63.8,37.7V21.9c0-1.7-1.4-3-3-3h-8.7v-4h0.7c1.7,0,3-1.4,3-3v-7c0-1.7-1.4-3-3-3h-28c-1.7,0-3,1.4-3,3v7
		c0,1.7,1.4,3,3,3h0.7v4h-7.7c-1.7,0-3,1.4-3,3v53c0,1.7,1.4,3,3,3h43c1.7,0,3-1.4,3-3v-37C63.8,37.8,63.8,37.7,63.8,37.7z
		 M18.8,73.8V40.5c2.8-1.2,17.9-4,24.6,0.4c3.4,2.2,6.7,3,9.5,3c3.2,0,4.7-0.9,6.1-1.5c0.2-0.1,0.5-0.2,0.8-0.4v31.9H18.8z"/>
</g>
<g id="多语言">
</g>
<g id="图层_9">
</g>
<g id="余额">
</g>
<g id="主页">
</g>
<g id="图层_10">
</g>
<g id="图层_7">
</g>
<g id="图层_8">
</g>
<g id="图层_12">
</g>
<g id="图层_13">
</g>
</svg>
