<?xml version="1.0" encoding="utf-8"?>
<!-- Generator: Adobe Illustrator 22.0.0, SVG Export Plug-In . SVG Version: 6.00 Build 0)  -->
<svg version="1.1" xmlns="http://www.w3.org/2000/svg" xmlns:xlink="http://www.w3.org/1999/xlink" x="0px" y="0px"
	 viewBox="0 0 80 80" style="enable-background:new 0 0 80 80;" xml:space="preserve">
<style type="text/css">
	.st0{fill:#FFFFFF;}
	.st1{fill:#A1A1A1;}
	.st2{fill:#165CC5;}
	.st3{fill:#3F9BF1;}
	.st4{fill:#F88A03;}
</style>
<g id="账单">
</g>
<g id="扫一扫">
</g>
<g id="转账">
</g>
<g id="图层_11">
</g>
<g id="多语言">
	<g>
		<path class="st1" d="M41,76c-18.8,0-34-15.3-34-34c0-18.8,15.3-34,34-34c18.8,0,34,15.3,34,34C75,60.7,59.7,76,41,76z M41,12.4
			c-16.3,0-29.5,13.2-29.5,29.5S24.7,71.4,41,71.4s29.5-13.2,29.5-29.5S57.2,12.4,41,12.4z"/>
	</g>
	<g>
		<path class="st1" d="M42,59.4c-6.1,0-11.8-2.4-16.1-6.7c-0.9-0.9-0.9-2.3,0-3.2s2.3-0.9,3.2,0c3.5,3.5,8,5.4,12.9,5.4
			c4.9,0,9.5-1.9,12.9-5.4c0.9-0.9,2.3-0.9,3.2,0s0.9,2.3,0,3.2C53.9,57,48.1,59.4,42,59.4z"/>
	</g>
</g>
<g id="图层_9">
</g>
<g id="余额">
</g>
<g id="主页">
</g>
<g id="图层_10">
</g>
<g id="图层_7">
</g>
<g id="图层_8">
</g>
<g id="图层_12">
</g>
<g id="图层_13">
</g>
</svg>
