<svg 
 xmlns="http://www.w3.org/2000/svg"
 xmlns:xlink="http://www.w3.org/1999/xlink"
 width="1080px" height="451px">
<defs>
<linearGradient id="PSgrad_0" x1="0%" x2="62.932%" y1="77.715%" y2="0%">
  <stop offset="0%" stop-color="rgb(2,236,134)" stop-opacity="1" />
  <stop offset="99%" stop-color="rgb(126,242,12)" stop-opacity="1" />
</linearGradient>
<linearGradient id="PSgrad_1" x1="0%" x2="62.932%" y1="77.715%" y2="0%">
  <stop offset="0%" stop-color="rgb(18,217,107)" stop-opacity="1" />
  <stop offset="99%" stop-color="rgb(114,215,15)" stop-opacity="1" />
</linearGradient>

</defs>
<path fill-rule="evenodd"  fill="rgb(255, 46, 46)"
 d="M-93.000,402.000 C-66.000,411.000 303.749,460.073 540.000,384.000 C678.182,339.505 996.000,393.000 1086.000,420.000 C1176.000,447.000 1170.000,-24.000 1170.000,-24.000 L-33.000,-57.000 C-33.000,-57.000 -120.000,393.000 -93.000,402.000 Z"/>
<path fill="url(#PSgrad_0)"
 d="M-93.000,402.000 C-66.000,411.000 303.749,460.073 540.000,384.000 C678.182,339.505 996.000,393.000 1086.000,420.000 C1176.000,447.000 1170.000,-24.000 1170.000,-24.000 L-33.000,-57.000 C-33.000,-57.000 -120.000,393.000 -93.000,402.000 Z"/>
<path fill-rule="evenodd"  opacity="0.302" fill="rgb(2, 236, 134)"
 d="M-23.000,202.000 C-23.000,202.000 848.972,546.128 1085.000,424.000 C1358.680,282.390 1190.000,-46.000 1190.000,-46.000 L-58.000,-30.000 L-23.000,202.000 Z"/>
<path fill="url(#PSgrad_0)"
 d="M-23.000,202.000 C-23.000,202.000 848.972,546.128 1085.000,424.000 C1358.680,282.390 1190.000,-46.000 1190.000,-46.000 L-58.000,-30.000 L-23.000,202.000 Z"/>
<path fill-rule="evenodd"  opacity="0.2" fill="rgb(2, 236, 134)"
 d="M-12.000,410.000 C-12.000,410.000 444.000,459.489 573.000,418.000 C702.000,376.511 737.154,333.012 866.000,335.000 C994.846,336.988 1165.000,337.000 1165.000,337.000 L1097.000,-73.000 L216.000,-73.000 L-91.000,2.000 L-12.000,410.000 Z"/>
<path fill="url(#PSgrad_1)"
 d="M-12.000,410.000 C-12.000,410.000 444.000,459.489 573.000,418.000 C702.000,376.511 737.154,333.012 866.000,335.000 C994.846,336.988 1165.000,337.000 1165.000,337.000 L1097.000,-73.000 L216.000,-73.000 L-91.000,2.000 L-12.000,410.000 Z"/>
</svg>