<?xml version="1.0" encoding="utf-8"?>
<!-- Generator: Adobe Illustrator 22.0.0, SVG Export Plug-In . SVG Version: 6.00 Build 0)  -->
<svg version="1.1" xmlns="http://www.w3.org/2000/svg" xmlns:xlink="http://www.w3.org/1999/xlink" x="0px" y="0px"
	 viewBox="0 0 120 120" style="enable-background:new 0 0 120 120;" xml:space="preserve">
<style type="text/css">
	.st0{fill:#FFFFFF;}
	.st1{fill:#A1A1A1;}
	.st2{fill:#165CC5;}
	.st3{fill:#3F9BF1;}
	.st4{fill:#F88A03;}
</style>
<g id="账单">
</g>
<g id="扫一扫">
</g>
<g id="转账">
</g>
<g id="图层_11">
</g>
<g id="多语言">
</g>
<g id="图层_9">
</g>
<g id="余额">
	<g>
		<path class="st0" d="M104.2,68.6c-1.9-10.6-8.8-20.8-17.4-26c-1.6-0.9-3.2-1.7-4.7-2.5c-1.6-0.8-1.2-2.7-1.2-2.7
			c0.2-0.2,0.1-0.5,0.3-0.7c1.2-1.3,3.1-3.2,3.8-6.5c0.1-0.3,0.7-3,0-6.1c-1.3-6.4-10-11.1-21.7-11.9V12L60,12l-0.2,0l-3.2,0v0.1
			c-11.9,0.8-20.3,5.3-21.7,11.9c-0.6,3.2,0,5.8,0,6.1c0.8,3.3,2.6,5.3,3.8,6.5c0.2,0.2,0.5,0.5,0.7,0.7c0.2,1.5,0.1,1.9-1.5,2.7
			c-1.6,0.8-3.2,1.6-4.7,2.5c-8.6,5.2-15.4,15.4-17.4,26c-2.4,12.9,2.7,27.2,12.3,34.8c4.4,3.5,9.5,5.8,15.7,7
			c8.2,1.6,11.6,1.6,16,1.7c0.5,0,1.1,0,1.8,0c0.9,0,1.9,0,3,0c4,0,6.3-0.2,11.9-1.8c4.5-1.2,10.2-2.8,15.4-6.9
			C101.5,95.9,106.5,81.5,104.2,68.6z M88,98.5c-4.2,3.4-9,4.6-13.2,5.8c-6.3,1.7-9.1,1.6-13.1,1.5c-0.7,0-1.4,0-1.9,0
			c-4.1,0-7.1,0-14.7-1.5c-5.2-1-9.4-2.9-12.9-5.7c-7.8-6.2-11.9-18-10-28.7c1.2-6.7,5.8-16.4,14.4-21.7c1.3-0.8,2.8-1.5,4.2-2.2
			c4.2-2.1,5.4-4.2,5.2-8.5c-0.1-2.3-1.5-3.8-2.6-5c-1-1.1-1.9-2-2.3-3.6c0,0-0.4-1.6,0-3.4c0.7-3.3,7.4-6.9,18.6-7l0.2,0l0.3,0
			c11.1,0.1,18.1,4.2,18.6,7c0.4,1.8,0,3.4,0,3.4c-0.4,1.6-1.3,2.6-2.3,3.6c-1.1,1.2-2.5,2.7-2.6,5c-0.1,4.3,1,6.4,5.2,8.5
			c1.4,0.7,2.9,1.4,4.2,2.2c8.7,5.3,13.2,15,14.4,21.7C99.9,80.5,95.8,92.3,88,98.5z"/>
		<path class="st0" d="M69.6,65.6c-1.8-0.7-4.9-1.6-9.2-2.5c-1.9-0.4-3-0.8-3.4-1.2c-0.4-0.4-0.6-0.9-0.6-1.5c0-1.6,1.2-2.4,3.7-2.4
			c2.9,0,4.8,1.2,5.8,3.7l9.2-2.9c-1.9-5.3-6.1-8.3-12.4-9.1v-4.9h-5.7v5c-3.9,0.6-6.8,2-8.7,4.3c-1.9,2.3-2.9,4.9-2.9,7.8
			c0,2.7,0.9,5,2.6,7c1.7,2,5.9,3.7,12.3,5c1.7,0.3,2.8,0.7,3.4,1.2c0.6,0.5,1,1.1,1,1.9c0,1.5-1.4,2.3-4.2,2.3
			c-3.6,0-5.8-1.5-6.7-4.5l-10.3,1.9c1.8,6.6,6.3,10.4,13.4,11.2v5.1h5.7v-5.1c4.2-0.5,7.5-1.8,9.9-4.1c2.4-2.3,3.6-5.1,3.6-8.4
			c0-2.4-0.6-4.5-1.8-6.2C72.9,67.6,71.4,66.4,69.6,65.6z"/>
	</g>
</g>
<g id="主页">
</g>
<g id="图层_10">
</g>
<g id="图层_7">
</g>
<g id="图层_8">
</g>
<g id="图层_12">
</g>
<g id="图层_13">
</g>
</svg>
