<?xml version="1.0" encoding="utf-8"?>
<!-- Generator: Adobe Illustrator 22.0.0, SVG Export Plug-In . SVG Version: 6.00 Build 0)  -->
<svg version="1.1" xmlns="http://www.w3.org/2000/svg" xmlns:xlink="http://www.w3.org/1999/xlink" x="0px" y="0px"
	 viewBox="0 0 80 80" style="enable-background:new 0 0 80 80;" xml:space="preserve">
<style type="text/css">
	.st0{fill:#FFFFFF;}
	.st1{fill:#A1A1A1;}
	.st2{fill:#165CC5;}
	.st3{fill:#3F9BF1;}
	.st4{fill:#F88A03;}
</style>
<g id="账单">
</g>
<g id="扫一扫">
</g>
<g id="转账">
</g>
<g id="图层_11">
</g>
<g id="多语言">
</g>
<g id="图层_9">
</g>
<g id="余额">
</g>
<g id="主页">
</g>
<g id="图层_10">
</g>
<g id="图层_7">
</g>
<g id="图层_8">
</g>
<g id="图层_12">
</g>
<g id="图层_13">
	<g>
		<path class="st4" d="M76,78H42.7l-0.2-3.9l0-57.5c0-6.1,0.4-9.2,3.3-10.3c1.6-0.7,3.5-0.7,5.1,0l0.1,0.1l20.3,10.7
			c1.9,0.9,3.1,2.8,3.1,4.9v44.4H76c1,0,2.2,0.6,2.8,1.3c0.5,0.6,0.7,1.3,0.7,1.9l0,5.6C79.2,77,77.3,78,76,78z M46.5,74h29v-3.6
			h-5.1V22c0-0.6-0.3-1.1-0.9-1.4L49.3,10c-0.6-0.3-1.3-0.3-1.9,0c-0.2,0.1-0.9,0.7-0.9,6.6V74z M41.4,78H5.5
			c-2.3,0-3.5-1.6-3.5-3.1v-5.5c0-1.5,1.2-3.1,3.5-3.1H7V18.2c0-2.1,1.3-4.1,3.2-5L33,0.8c1.8-0.8,3.8-0.8,5.6,0
			c2.8,1,2.8,2.8,2.8,10.3v63L41.4,78z M5.9,74l31.5,0V11.1c0-3.4,0-5.9-0.2-6.6l-0.1,0c-0.8-0.3-1.7-0.3-2.5,0L12,16.8
			c-0.6,0.3-1,0.9-1,1.5v52.2H5.9V74z M62.1,65.3h-5.4c-1.7,0-3.1-1.4-3.1-3.1v-5.4c0-1.7,1.4-3.1,3.1-3.1h5.4
			c1.7,0,3.1,1.4,3.1,3.1l-0.1,5.4C65.2,64,63.8,65.3,62.1,65.3z M57.7,61.3h3.5l0-3.6h-3.5V61.3z M29.2,65.3h-5.4
			c-1.7,0-3.1-1.4-3.1-3.1v-5.4c0-1.7,1.4-3.1,3.1-3.1h5.4c1.7,0,3.1,1.4,3.1,3.1l-0.1,5.4C32.2,64,30.9,65.3,29.2,65.3z M24.7,61.3
			h3.5l0-3.6h-3.5V61.3z M62.1,50.2h-5.4c-1.7,0-3.1-1.4-3.1-3.1v-5.5c0-1.7,1.4-3.1,3.1-3.1h5.5c1.7,0,3.1,1.4,3.1,3.1l-0.1,5.6
			C65.2,48.9,63.8,50.2,62.1,50.2z M57.7,46.2h3.5l0.1-3.7h-3.6V46.2z M29.2,50.2h-5.4c-1.7,0-3.1-1.4-3.1-3.1v-5.5
			c0-1.7,1.4-3.1,3.1-3.1h5.5c1.7,0,3.1,1.4,3.1,3.1l-0.1,5.6C32.2,48.9,30.8,50.2,29.2,50.2z M24.7,46.2h3.5l0.1-3.7h-3.6V46.2z
			 M62.1,34.9h-5.4c-1.7,0-3.1-1.4-3.1-3.1v-5.4c0-1.7,1.4-3.1,3.1-3.1h5.5c1.7,0,3.1,1.4,3.1,3.1l0,5.5
			C65.2,33.5,63.8,34.9,62.1,34.9z M61.2,31.8C61.2,31.8,61.2,31.8,61.2,31.8L61.2,31.8z M57.6,30.9h3.6l0-3.6h-3.6V30.9z
			 M29.2,34.9h-5.4c-1.7,0-3.1-1.4-3.1-3.1v-7.4h0.8c0.6-0.7,1.4-1.1,2.3-1.1h5.5c1.7,0,3.1,1.4,3.1,3.1l0,5.5
			C32.2,33.5,30.9,34.9,29.2,34.9z M28.2,31.8C28.2,31.8,28.2,31.8,28.2,31.8L28.2,31.8z M24.7,30.9h3.6l0-3.6h-3.6L24.7,30.9z"/>
	</g>
</g>
</svg>
