<?xml version="1.0" encoding="utf-8"?>
<!-- Generator: Adobe Illustrator 22.0.0, SVG Export Plug-In . SVG Version: 6.00 Build 0)  -->
<svg version="1.1" xmlns="http://www.w3.org/2000/svg" xmlns:xlink="http://www.w3.org/1999/xlink" x="0px" y="0px"
	 viewBox="0 0 80 80" style="enable-background:new 0 0 80 80;" xml:space="preserve">
<style type="text/css">
	.st0{fill:#FFFFFF;}
</style>
<g id="账单">
</g>
<g id="扫一扫">
</g>
<g id="转账">
</g>
<g id="多语言">
	<path class="st0" d="M40,5C23.1,5,12.5,18.3,12,19c-2.1,2.8-7.3,10.6-7,21c0.5,15.8,13.9,35,35,35c19.3,0,35-15.7,35-35
		S59.3,5,40,5z M65,58.3c-0.1-0.1-0.3-0.1-0.4-0.2c-4.2-1.4-8-2.4-11.8-3c0.7-4.5,1-8.9,1.1-13.1h17C70.5,48.1,68.4,53.7,65,58.3z
		 M15,58.3C11.6,53.7,9.5,48.1,9.1,42h17c0.1,4.1,0.4,8.5,1.1,13c-4.2,0.7-8.1,1.7-11.8,3.1C15.2,58.2,15.1,58.2,15,58.3z M30,42h20
		c-0.1,3.9-0.4,8.1-1.1,12.5C46.1,54.2,43.1,54,40,54c-3.1,0-6.1,0.2-8.9,0.5C30.4,50.1,30.1,45.9,30,42z M30,38
		c0.1-4.6,0.5-8.8,1-12.5c2.9,0.3,5.8,0.5,9,0.5c3.1,0,6.1-0.2,9-0.5c0.5,3.7,0.9,7.9,1,12.5H30z M54,38c-0.1-4.7-0.5-9.1-1-13
		c4.1-0.7,8-1.7,11.7-3.1c0.1,0,0.2-0.1,0.3-0.2c3.4,4.6,5.5,10.2,5.9,16.3H54z M62.3,18.5c-3.2,1.1-6.5,2-9.9,2.6
		c-0.8-4.3-1.8-7.9-2.6-10.5C54.5,12.2,58.8,14.9,62.3,18.5z M45,9.4c0,0.1,0.1,0.2,0.1,0.4c0,0.1,1.8,4.5,3.2,11.8
		C45.7,21.8,42.9,22,40,22c-2.9,0-5.6-0.1-8.3-0.5c1.4-7.3,3.1-11.7,3.2-11.8c0.1-0.1,0.1-0.2,0.1-0.4C36.6,9.1,38.3,9,40,9
		C41.7,9,43.4,9.1,45,9.4z M30.3,10.6c-0.9,2.6-1.8,6.1-2.6,10.4c-3.2-0.6-6.5-1.4-9.9-2.5C21.2,14.9,25.5,12.1,30.3,10.6z M15,21.7
		c0.1,0.1,0.3,0.1,0.4,0.2c4.1,1.4,7.9,2.4,11.7,3c-0.6,3.9-0.9,8.3-1,13.1H9.1C9.5,31.9,11.6,26.3,15,21.7z M17.7,61.5
		c3.2-1.1,6.6-2,10.1-2.6c0.7,3.5,1.5,7,2.6,10.5C25.5,67.9,21.2,65.1,17.7,61.5z M35,70.6c0-0.1,0-0.1,0-0.2
		c-1.4-4.1-2.4-8.1-3.1-11.9c2.6-0.3,5.4-0.4,8.2-0.4c2.9,0,5.6,0.1,8.2,0.4c-0.8,3.9-1.8,7.8-3.1,11.9c0,0.1,0,0.1,0,0.2
		C43.4,70.9,41.7,71,40,71C38.3,71,36.6,70.9,35,70.6z M49.6,69.5c1.1-3.5,1.9-7,2.6-10.5c3.3,0.6,6.6,1.4,10.1,2.5
		C58.8,65.1,54.5,67.9,49.6,69.5z"/>
</g>
<g id="余额">
</g>
<g id="主页">
</g>
<g id="图层_7">
</g>
<g id="图层_8">
</g>
</svg>
