<svg id="账单" xmlns="http://www.w3.org/2000/svg" viewBox="0 0 80 80"><defs><style>.cls-1{fill:#fff;}</style></defs><title>话费充值个人中心icon</title><path class="cls-1" d="M61,76.5a2,2,0,0,1-2-2C59,74,57.65,73,56.5,73S54,74,54,74.5a2,2,0,0,1-4,0C50,74,48.65,73,47.5,73S45,74,45,74.5a2,2,0,0,1-2,2H42a2,2,0,0,1-2-2C40,74,38.65,73,37.5,73S35,74,35,74.5a2,2,0,0,1-2,2H32a2,2,0,0,1-2-2C30,74,28.65,73,27.5,73S25,74,25,74.5a2,2,0,0,1-4,0C21,74,19.65,73,18.5,73S16,74,16,74.5a2,2,0,0,1-2,2c-3.59,0-6-2.81-6-7v-58a7,7,0,0,1,7-7H61a7,7,0,0,1,7,7v58A7,7,0,0,1,61,76.5Zm2-2h0ZM56.5,69a7.18,7.18,0,0,1,5.82,3.19A3,3,0,0,0,64,69.5v-58a3,3,0,0,0-3-3H15a3,3,0,0,0-3,3v58a3.59,3.59,0,0,0,.77,2.55,7.2,7.2,0,0,1,5.73-3A7.3,7.3,0,0,1,23,70.69,7.3,7.3,0,0,1,27.5,69a7.32,7.32,0,0,1,5,2.15,6.89,6.89,0,0,1,10,0,6.86,6.86,0,0,1,9.5-.46A7.3,7.3,0,0,1,56.5,69ZM58,26h0a2,2,0,0,0-2-2H20a2,2,0,0,0-2,2h0a2.71,2.71,0,0,0,1,2H55C57.1,28,58,27.1,58,26Zm0,11h0a2,2,0,0,0-2-2H20a2,2,0,0,0-2,2h0a2.71,2.71,0,0,0,1,2H55C57.1,39,58,38.1,58,37ZM48,48h0a2,2,0,0,0-2-2H20a2,2,0,0,0-2,2h0a2.71,2.71,0,0,0,1,2H45C47.1,50,48,49.1,48,48Z"/></svg>