<?xml version="1.0" encoding="utf-8"?>
<!-- Generator: Adobe Illustrator 22.0.0, SVG Export Plug-In . SVG Version: 6.00 Build 0)  -->
<svg version="1.1" xmlns="http://www.w3.org/2000/svg" xmlns:xlink="http://www.w3.org/1999/xlink" x="0px" y="0px"
	 viewBox="0 0 120 120" style="enable-background:new 0 0 120 120;" xml:space="preserve">
<style type="text/css">
	.st0{fill:#FFFFFF;}
	.st1{fill:#A1A1A1;}
	.st2{fill:#165CC5;}
	.st3{fill:#3F9BF1;}
	.st4{fill:#F88A03;}
</style>
<g id="账单">
</g>
<g id="扫一扫">
	<path class="st0" d="M17.8,45.9V19.2c0-0.1,0-0.1,0-0.2c0-0.1,0-0.1,0-0.2c0-0.7,0.3-1.3,0.8-1.8c0,0,0.1-0.1,0.1-0.1
		c0,0,0.1-0.1,0.1-0.1c0.5-0.5,1.1-0.8,1.8-0.8c0.1,0,0.1,0,0.2,0c0.1,0,0.1,0,0.2,0h26.8c1.7,0,3.1,1.2,3.1,2.7
		c0,1.5-1.4,2.7-3.1,2.7H23.3v24.4c0,1.7-1.2,3.1-2.7,3.1C19,49,17.8,47.6,17.8,45.9z M111.1,18.8c0-0.7-0.3-1.3-0.8-1.8
		c0,0-0.1-0.1-0.1-0.1c0,0-0.1-0.1-0.1-0.1c-0.5-0.5-1.1-0.8-1.8-0.8c-0.1,0-0.1,0-0.2,0c-0.1,0-0.1,0-0.2,0H81.3
		c-1.7,0-3.1,1.2-3.1,2.7c0,1.5,1.4,2.7,3.1,2.7h24.4v24.4c0,1.7,1.2,3.1,2.7,3.1c1.5,0,2.7-1.4,2.7-3.1V19.2c0-0.1,0-0.1,0-0.2
		C111.1,18.9,111.1,18.9,111.1,18.8z M47.6,98.4H23.3V74.1c0-1.7-1.2-3.1-2.7-3.1c-1.5,0-2.7,1.4-2.7,3.1v26.8c0,0.1,0,0.1,0,0.2
		c0,0.1,0,0.1,0,0.2c0,0.7,0.3,1.3,0.8,1.8c0,0,0.1,0.1,0.1,0.1c0,0,0.1,0.1,0.1,0.1c0.5,0.5,1.1,0.8,1.8,0.8c0.1,0,0.1,0,0.2,0
		c0.1,0,0.1,0,0.2,0h26.8c1.7,0,3.1-1.2,3.1-2.7C50.7,99.7,49.3,98.4,47.6,98.4z M108.4,71c-1.5,0-2.7,1.4-2.7,3.1v24.4H81.3
		c-1.7,0-3.1,1.2-3.1,2.7c0,1.5,1.4,2.7,3.1,2.7H108c0.1,0,0.1,0,0.2,0c0.1,0,0.1,0,0.2,0c0.7,0,1.3-0.3,1.8-0.8
		c0,0,0.1-0.1,0.1-0.1c0,0,0.1-0.1,0.1-0.1c0.5-0.5,0.8-1.1,0.8-1.8c0-0.1,0-0.1,0-0.2c0-0.1,0-0.1,0-0.2V74.1
		C111.1,72.4,109.9,71,108.4,71z M108,55.9H20.9c-1.7,0-3.1,1.2-3.1,2.7c0,1.5,1.4,2.7,3.1,2.7H108c1.7,0,3.1-1.2,3.1-2.7
		C111.1,57.1,109.7,55.9,108,55.9z"/>
</g>
<g id="转账">
</g>
<g id="图层_11">
</g>
<g id="多语言">
</g>
<g id="图层_9">
</g>
<g id="余额">
</g>
<g id="主页">
</g>
<g id="图层_10">
</g>
<g id="图层_7">
</g>
<g id="图层_8">
</g>
<g id="图层_12">
</g>
<g id="图层_13">
</g>
</svg>
