<?xml version="1.0" encoding="utf-8"?>
<!-- Generator: Adobe Illustrator 22.0.0, SVG Export Plug-In . SVG Version: 6.00 Build 0)  -->
<svg version="1.1" xmlns="http://www.w3.org/2000/svg" xmlns:xlink="http://www.w3.org/1999/xlink" x="0px" y="0px"
	 viewBox="0 0 80 80" style="enable-background:new 0 0 80 80;" xml:space="preserve">
<style type="text/css">
	.st0{fill:#FFFFFF;}
</style>
<g id="账单">
</g>
<g id="扫一扫">
</g>
<g id="转账">
</g>
<g id="多语言">
</g>
<g id="余额">
</g>
<g id="主页">
	<g>
		<path class="st0" d="M43.1,74h-6.2c-3.7,0-6.7-3-6.8-6.7l-0.2-2.6c-0.1,0-0.2-0.1-0.3-0.1l-2,1.7c-1.3,1.2-2.9,1.9-4.7,1.9
			c-1.8,0-3.5-0.7-4.8-2l-4.4-4.4c-1.3-1.3-2-3-2-4.8c0-1.8,0.7-3.5,1.9-4.7l1.2-1.4c-0.1-0.3-0.3-0.6-0.4-0.9l-1.9-0.2
			C9,49.8,6,46.8,6,43.1v-6.2c0-3.7,3-6.7,6.7-6.8l1.9-0.2c0.1-0.3,0.2-0.6,0.4-0.9l-1.2-1.4c-1.2-1.3-1.9-2.9-1.9-4.7
			c0-1.8,0.7-3.5,2-4.8l4.4-4.4c1.3-1.3,3-2,4.8-2c1.8,0,3.5,0.7,4.7,1.9l2,1.7c0.1,0,0.2-0.1,0.3-0.1l0.2-2.6C30.2,9,33.2,6,36.9,6
			h6.2c3.7,0,6.7,3,6.8,6.7l0.2,2.9l2.2-1.9c1.3-1.2,2.9-1.9,4.7-1.9c1.8,0,3.5,0.7,4.8,2l4.4,4.4c1.3,1.3,2,3,2,4.8
			c0,1.8-0.7,3.5-1.9,4.7l-1.9,2.2l2.9,0.2c3.7,0.1,6.7,3.1,6.7,6.8v6.2c0,3.7-3,6.7-6.7,6.8l-2.9,0.2l1.9,2.2
			c1.2,1.3,1.9,2.9,1.9,4.7c0,1.8-0.7,3.5-2,4.8l-4.4,4.4c-1.3,1.3-3,2-4.8,2c-1.8,0-3.5-0.7-4.7-1.9l-2.2-1.9l-0.2,2.9
			C49.8,71,46.8,74,43.1,74z M29.2,59.9c0.3,0,0.6,0.1,0.9,0.2c0.8,0.4,1.7,0.7,2.5,0.9c0.9,0.3,1.5,1,1.6,1.9l0.3,4.1
			c0,0.1,0,0.1,0,0.2c0,1.3,1.1,2.4,2.4,2.4h6.2c1.3,0,2.4-1.1,2.4-2.4c0-0.1,0-0.1,0-0.2l0.4-4.9c0.1-0.8,0.6-1.5,1.4-1.9
			c0.6-0.2,1.2-0.5,1.8-0.8c0.8-0.4,1.8-0.3,2.4,0.3l3.8,3.2c0,0,0.1,0.1,0.1,0.1c0.9,0.9,2.5,0.9,3.4,0l4.4-4.4
			c0.4-0.4,0.7-1.1,0.7-1.7c0-0.6-0.2-1.2-0.7-1.7c0,0-0.1-0.1-0.1-0.1L59.4,51c-0.5-0.6-0.7-1.5-0.3-2.3c0.2-0.4,0.4-0.9,0.5-1.3
			c0.3-0.8,1-1.4,1.9-1.4l5.6-0.5c0.1,0,0.1,0,0.2,0c1.3,0,2.4-1.1,2.4-2.4v-6.2c0-1.3-1.1-2.4-2.4-2.4c-0.1,0-0.1,0-0.2,0l-5.6-0.5
			c-0.9-0.1-1.6-0.6-1.9-1.5c-0.2-0.4-0.3-0.9-0.5-1.3c-0.3-0.8-0.2-1.7,0.3-2.3l3.6-4.3c0,0,0.1-0.1,0.1-0.1
			c0.4-0.4,0.7-1.1,0.7-1.7c0-0.6-0.2-1.2-0.7-1.7l-4.4-4.4c-0.9-0.9-2.5-0.9-3.4,0c0,0-0.1,0.1-0.1,0.1l-3.8,3.3
			c-0.7,0.6-1.6,0.7-2.4,0.3c-0.6-0.3-1.2-0.6-1.8-0.8c-0.8-0.3-1.3-1-1.4-1.9L45.5,13c0-0.1,0-0.1,0-0.2c0-1.3-1.1-2.4-2.4-2.4
			h-6.2c-1.3,0-2.4,1.1-2.4,2.4c0,0.1,0,0.1,0,0.2l-0.3,4.1c-0.1,0.9-0.7,1.7-1.6,1.9c-0.9,0.3-1.7,0.6-2.5,0.9
			c-0.8,0.3-1.7,0.2-2.3-0.3l-3-2.6c0,0-0.1-0.1-0.1-0.1c-0.9-0.9-2.5-0.9-3.4,0l-4.4,4.4c-0.4,0.4-0.7,1.1-0.7,1.7
			c0,0.6,0.2,1.2,0.7,1.7c0,0,0.1,0.1,0.1,0.1l2.2,2.6c0.6,0.7,0.7,1.6,0.3,2.4c-0.5,1-0.9,2-1.3,3c-0.3,0.8-1,1.4-1.9,1.5L13,34.5
			c-0.1,0-0.1,0-0.2,0c-1.3,0-2.4,1.1-2.4,2.4v6.2c0,1.3,1.1,2.4,2.4,2.4c0.1,0,0.1,0,0.2,0l3.3,0.3c0.9,0.1,1.6,0.6,1.9,1.5
			c0.4,1,0.8,2,1.3,3c0.4,0.8,0.3,1.8-0.3,2.4L17,55.2c0,0-0.1,0.1-0.1,0.1c-0.4,0.4-0.7,1.1-0.7,1.7c0,0.6,0.2,1.2,0.7,1.7l4.4,4.4
			c0.9,0.9,2.5,0.9,3.4,0c0,0,0.1-0.1,0.1-0.1l3-2.6C28.2,60.1,28.7,59.9,29.2,59.9z M40,56.5c-9.1,0-16.5-7.4-16.5-16.5
			c0-9.1,7.4-16.5,16.5-16.5c9.1,0,16.5,7.4,16.5,16.5C56.5,49.1,49.1,56.5,40,56.5z M40,27.9c-6.7,0-12.1,5.4-12.1,12.1
			S33.3,52.1,40,52.1S52.1,46.7,52.1,40S46.7,27.9,40,27.9z"/>
	</g>
</g>
<g id="图层_7">
</g>
<g id="图层_8">
</g>
</svg>
