<?xml version="1.0" encoding="utf-8"?>
<!-- Generator: Adobe Illustrator 22.0.0, SVG Export Plug-In . SVG Version: 6.00 Build 0)  -->
<svg version="1.1" xmlns="http://www.w3.org/2000/svg" xmlns:xlink="http://www.w3.org/1999/xlink" x="0px" y="0px"
	 viewBox="0 0 80 80" style="enable-background:new 0 0 80 80;" xml:space="preserve">
<style type="text/css">
	.st0{fill:#FFFFFF;}
	.st1{fill:#A1A1A1;}
	.st2{fill:#165CC5;}
	.st3{fill:#3F9BF1;}
	.st4{fill:#F88A03;}
</style>
<g id="账单">
</g>
<g id="扫一扫">
</g>
<g id="转账">
</g>
<g id="图层_11">
</g>
<g id="多语言">
</g>
<g id="图层_9">
</g>
<g id="余额">
</g>
<g id="主页">
</g>
<g id="图层_10">
</g>
<g id="图层_7">
	<path class="st3" d="M58,79.5H22c-3.9,0-7-3.1-7-7V11.3c0-3.9,3.1-7,7-7h36c3.9,0,7,3.1,7,7v61.2C65,76.4,61.9,79.5,58,79.5z
		 M22,8.3c-1.7,0-3,1.3-3,3v61.2c0,1.7,1.3,3,3,3h36c1.7,0,3-1.3,3-3V11.3c0-1.7-1.3-3-3-3H22z M55,64H24.5c-1.1,0-2-0.9-2-2V17.8
		c0-1.1,0.9-2,2-2H55c1.1,0,2,0.9,2,2V62C57,63.1,56.1,64,55,64z M26.5,60H53V19.8H26.5V60z M47.1,12.3c0-0.8-0.7-1.5-1.5-1.5H33.9
		c-0.8,0-1.5,0.7-1.5,1.5s0.7,1.5,1.5,1.5h11.8C46.4,13.8,47.1,13.1,47.1,12.3z M39.9,65.8c-2.2,0-4,1.8-4,4c0,2.2,1.8,4,4,4
		s4-1.8,4-4C43.9,67.6,42.1,65.8,39.9,65.8z M37.9,28.4v-2.8h3.2v2.8c3.6,0.4,5.9,2.1,7,5.1L42.9,35c-0.5-1.4-1.6-2.1-3.3-2.1
		c-1.4,0-2.1,0.4-2.1,1.3c0,0.3,0.1,0.6,0.3,0.8c0.2,0.2,0.9,0.5,1.9,0.7c2.4,0.5,4.1,1,5.2,1.4c1,0.4,1.9,1.1,2.6,2.1
		c0.7,1,1,2.2,1,3.5c0,1.9-0.7,3.5-2,4.8c-1.3,1.3-3.2,2-5.6,2.3v2.9h-3.2v-2.9c-4-0.5-6.5-2.6-7.6-6.3l5.8-1.1
		c0.5,1.7,1.8,2.6,3.8,2.6c1.6,0,2.4-0.4,2.4-1.3c0-0.5-0.2-0.8-0.5-1.1s-1-0.5-1.9-0.7c-3.7-0.7-6-1.7-6.9-2.8
		c-1-1.2-1.5-2.5-1.5-4c0-1.6,0.5-3.1,1.6-4.4C34,29.5,35.7,28.7,37.9,28.4z"/>
</g>
<g id="图层_8">
</g>
<g id="图层_12">
</g>
<g id="图层_13">
</g>
</svg>
