<?xml version="1.0" standalone="no"?><!DOCTYPE svg PUBLIC "-//W3C//DTD SVG 1.1//EN" "http://www.w3.org/Graphics/SVG/1.1/DTD/svg11.dtd"><svg class="icon" width="80px" height="80.00px" viewBox="0 0 1024 1024" version="1.1" xmlns="http://www.w3.org/2000/svg"><path d="M398.6 487H177.9c-46.4 0-84.1-37.7-84.1-84.1V182.2c0-46.4 37.7-84.1 84.1-84.1h220.7c46.4 0 84.1 37.7 84.1 84.1v220.7c0 46.4-37.7 84.1-84.1 84.1zM177.9 152.2c-16.6 0-30 13.5-30 30v220.7c0 16.6 13.5 30 30 30h220.7c16.6 0 30-13.5 30-30V182.2c0-16.6-13.5-30-30-30H177.9zM398.6 925.9H177.9c-46.4 0-84.1-37.7-84.1-84.1V621.1c0-46.4 37.7-84.1 84.1-84.1h220.7c46.4 0 84.1 37.7 84.1 84.1v220.7c0 46.4-37.7 84.1-84.1 84.1zM177.9 591.1c-16.6 0-30 13.5-30 30v220.7c0 16.6 13.5 30 30 30h220.7c16.6 0 30-13.5 30-30V621.1c0-16.6-13.5-30-30-30H177.9zM846.1 487H625.4c-46.4 0-84.1-37.7-84.1-84.1V182.2c0-46.4 37.7-84.1 84.1-84.1h220.7c46.4 0 84.1 37.7 84.1 84.1v220.7c0 46.4-37.7 84.1-84.1 84.1zM625.4 152.2c-16.6 0-30 13.5-30 30v220.7c0 16.6 13.5 30 30 30h220.7c16.6 0 30-13.5 30-30V182.2c0-16.6-13.5-30-30-30H625.4zM622.3 922.9c-14.9 0-27-12.1-27-27V730.3c0-14.9 12.1-27 27-27s27 12.1 27 27v165.5c0.1 15-12 27.1-27 27.1zM862.6 922.9c-14.9 0-27-12.1-27-27V568c0-14.9 12.1-27 27-27s27 12.1 27 27v327.8c0.1 15-12 27.1-27 27.1zM622.3 679.6c-14.9 0-27-12.1-27-27v-88.9c0-14.9 12.1-27 27-27s27 12.1 27 27v88.9c0.1 14.9-12 27-27 27zM741 629.3c-14.9 0-27-12.1-27-27v-34.8c0-14.9 12.1-27 27-27s27 12.1 27 27v34.8c0 14.9-12.1 27-27 27zM741 921.4c-14.9 0-27-12.1-27-27V674.7c0-14.9 12.1-27 27-27s27 12.1 27 27v219.6c0 15-12.1 27.1-27 27.1z" fill="#ffffff" /></svg>