<?xml version="1.0" encoding="utf-8"?>
<!-- Generator: Adobe Illustrator 22.0.0, SVG Export Plug-In . SVG Version: 6.00 Build 0)  -->
<svg version="1.1" xmlns="http://www.w3.org/2000/svg" xmlns:xlink="http://www.w3.org/1999/xlink" x="0px" y="0px"
	 viewBox="0 0 120 120" style="enable-background:new 0 0 120 120;" xml:space="preserve">
<style type="text/css">
	.st0{fill:#FFFFFF;}
	.st1{fill:#A1A1A1;}
	.st2{fill:#165CC5;}
	.st3{fill:#3F9BF1;}
	.st4{fill:#F88A03;}
</style>
<g id="账单">
	<path class="st0" d="M104.5,17.5h-83c-4.9,0-8.8,4-8.8,8.8v64.9c0,4.9,4,8.8,8.8,8.8h83c4.9,0,8.8-4,8.8-8.8V26.4
		C113.3,21.5,109.4,17.5,104.5,17.5z M108.2,91.3c0,2-1.6,3.7-3.7,3.7h-83c-2,0-3.7-1.6-3.7-3.7V26.4c0-2,1.6-3.7,3.7-3.7h83
		c2,0,3.7,1.6,3.7,3.7V91.3z M33.6,53.7c-1.6,0-2.9-1.2-2.9-2.6c0-1.4,1.3-2.6,2.9-2.6h50.2l-8.2-8.2c-1.1-1.1-1.2-2.9-0.2-3.9
		c1-1,2.7-0.9,3.9,0.2L91.6,49c0.2,0.2,0.3,0.4,0.4,0.5c0.4,0.4,0.6,1,0.6,1.6c0,1.4-1.3,2.6-2.9,2.6H33.6z M94,62.7
		c0,1.4-1.3,2.6-2.9,2.6H40.8l8.2,8.2c1.1,1.1,1.2,2.9,0.2,3.9c-1,1-2.7,0.9-3.9-0.2L33.1,64.8c-0.2-0.2-0.3-0.4-0.4-0.5
		c-0.4-0.4-0.6-1-0.6-1.6c0-1.4,1.3-2.6,2.9-2.6h56.1C92.7,60.1,94,61.3,94,62.7z"/>
</g>
<g id="扫一扫">
</g>
<g id="转账">
</g>
<g id="图层_11">
</g>
<g id="多语言">
</g>
<g id="图层_9">
</g>
<g id="余额">
</g>
<g id="主页">
</g>
<g id="图层_10">
</g>
<g id="图层_7">
</g>
<g id="图层_8">
</g>
<g id="图层_12">
</g>
<g id="图层_13">
</g>
</svg>
