<?xml version="1.0" standalone="no"?><!DOCTYPE svg PUBLIC "-//W3C//DTD SVG 1.1//EN" "http://www.w3.org/Graphics/SVG/1.1/DTD/svg11.dtd"><svg class="icon" width="80px" height="80.00px" viewBox="0 0 1024 1024" version="1.1" xmlns="http://www.w3.org/2000/svg"><path d="M763.619556 773.12l-57.059556 43.804444c-54.101333 15.985778-187.278222 42.268444-352.540444-191.146666C166.684444 373.475556 241.379556 230.513778 269.084444 205.767111l59.960889-42.325333 24.917334 7.281778 100.920889 145.863111-2.901334 23.324444-58.538666 40.846222c-26.339556 21.902222-8.760889 49.607111 10.24 102.115556 17.578667 30.663111 57.059556 91.932444 83.399111 115.256889 45.340444 37.944889 65.820444 62.748444 96.540444 45.226666l55.580445-39.367111 22.016 2.844445 105.244444 141.539555-2.844444 24.746667zM0 510.520889C0 793.543111 228.238222 1024 512 1024s512-230.4 512-513.422222C1024 227.555556 795.761778 0 512 0S0 227.555556 0 510.577778z" fill="#f88a03" /></svg>