<?xml version="1.0" standalone="no"?><!DOCTYPE svg PUBLIC "-//W3C//DTD SVG 1.1//EN" "http://www.w3.org/Graphics/SVG/1.1/DTD/svg11.dtd"><svg t="1556108504646" class="icon" style="" viewBox="0 0 1024 1024" version="1.1" xmlns="http://www.w3.org/2000/svg" p-id="4128" xmlns:xlink="http://www.w3.org/1999/xlink" width="128" height="128"><defs><style type="text/css"></style></defs><path d="M112.64 276.48C168.96 117.76 327.68 0 512 0c184.32 0 343.04 117.76 399.36 276.48 40.96 20.48 66.56 66.56 66.56 112.64 0 71.68-61.44 128-133.12 128v-256h10.24C793.6 133.12 665.6 46.08 512 46.08S225.28 133.12 163.84 261.12h10.24v261.12C102.4 522.24 46.08 460.8 46.08 389.12c0-46.08 25.6-92.16 66.56-112.64z m0 0" fill="#E94744" p-id="4129"></path><path d="M798.72 414.72c0 153.6-128 281.6-286.72 281.6s-286.72-128-286.72-281.6S353.28 133.12 512 133.12c158.72 0 286.72 122.88 286.72 281.6z m0 0" fill="#E94744" p-id="4130"></path><path d="M0 1024c0-163.84 87.04-286.72 225.28-353.28 76.8 66.56 174.08 112.64 286.72 112.64 112.64 0 209.92-40.96 286.72-112.64 138.24 66.56 225.28 189.44 225.28 353.28H0z m0 0" fill="#E94744" p-id="4131"></path></svg>