<svg 
 xmlns="http://www.w3.org/2000/svg"
 xmlns:xlink="http://www.w3.org/1999/xlink"
 width="36px" height="40px">
<path fill-rule="evenodd"  fill="rgb(205, 205, 205)"
 d="M17.676,31.200 C16.884,31.200 0.005,40.000 0.005,40.000 L0.005,4.000 C0.005,1.791 1.788,-0.000 3.986,-0.000 L31.060,-0.000 C33.259,-0.000 35.041,1.791 35.041,4.000 L35.041,40.000 C35.041,40.000 18.017,31.200 17.676,31.200 ZM31.856,5.600 C31.856,4.452 31.194,3.200 29.395,3.200 L5.651,3.200 C3.852,3.200 3.067,4.452 3.190,5.600 L3.190,34.400 C3.190,34.400 17.000,27.360 17.648,27.360 C17.927,27.360 31.856,34.400 31.856,34.400 L31.856,5.600 Z"/>
<path fill-rule="evenodd"  fill="rgb(158, 82, 252)"
 d="M27.535,13.000 L8.512,13.000 C7.684,13.000 7.012,12.328 7.012,11.500 C7.012,10.671 7.684,10.000 8.512,10.000 L27.535,10.000 C28.363,10.000 29.035,10.671 29.035,11.500 C29.035,12.328 28.363,13.000 27.535,13.000 ZM8.512,17.000 L27.535,17.000 C28.363,17.000 29.035,17.671 29.035,18.500 C29.035,19.328 28.363,20.000 27.535,20.000 L8.512,20.000 C7.684,20.000 7.012,19.328 7.012,18.500 C7.012,17.671 7.684,17.000 8.512,17.000 Z"/>
</svg>