<svg 
 xmlns="http://www.w3.org/2000/svg"
 xmlns:xlink="http://www.w3.org/1999/xlink"
 width="44px" height="40px">
<path fill-rule="evenodd"  fill="rgb(205, 205, 205)"
 d="M39.000,40.000 L5.000,40.000 C2.239,40.000 -0.000,37.761 -0.000,35.000 L-0.000,14.600 C-0.000,13.605 0.299,12.683 0.800,11.904 L0.800,4.000 C0.800,1.791 2.591,-0.000 4.800,-0.000 L20.800,-0.000 C23.009,-0.000 23.888,1.957 24.800,4.000 L27.200,9.600 L39.000,9.600 C41.761,9.600 44.000,11.839 44.000,14.600 L44.000,35.000 C44.000,37.761 41.761,40.000 39.000,40.000 ZM21.600,4.800 C21.103,3.833 20.884,3.200 20.000,3.200 L5.600,3.200 C4.716,3.200 4.000,3.916 4.000,4.800 L4.000,9.600 L21.600,9.600 C22.484,9.600 23.200,8.884 23.200,8.000 L21.600,4.800 ZM40.800,14.800 C40.800,13.695 39.905,12.800 38.800,12.800 L22.400,12.800 L5.200,12.800 C4.095,12.800 3.200,13.695 3.200,14.800 L3.200,34.800 C3.200,35.905 4.095,36.800 5.200,36.800 L38.800,36.800 C39.905,36.800 40.800,35.905 40.800,34.800 L40.800,14.800 Z"/>
<path fill-rule="evenodd"  fill="rgb(158, 82, 252)"
 d="M22.400,28.000 L33.600,28.000 C34.484,28.000 35.200,28.716 35.200,29.600 C35.200,30.484 34.484,31.200 33.600,31.200 L22.400,31.200 C21.516,31.200 20.800,30.484 20.800,29.600 C20.800,28.716 21.516,28.000 22.400,28.000 Z"/>
</svg>