<svg 
 xmlns="http://www.w3.org/2000/svg"
 xmlns:xlink="http://www.w3.org/1999/xlink"
 width="1080px" height="528px">
<path fill-rule="evenodd"  fill="rgb(158, 82, 252)"
 d="M0.000,0.000 L1080.000,0.000 L1080.000,528.000 L0.000,528.000 L0.000,0.000 Z"/>
<path fill-rule="evenodd"  opacity="0.4" fill="rgb(205, 164, 255)"
 d="M975.500,612.000 C877.469,612.000 798.000,532.530 798.000,434.500 C798.000,336.469 877.469,257.000 975.500,257.000 C1073.531,257.000 1153.000,336.469 1153.000,434.500 C1153.000,532.530 1073.531,612.000 975.500,612.000 ZM860.000,175.000 C835.147,175.000 815.000,154.853 815.000,130.000 C815.000,105.147 835.147,85.000 860.000,85.000 C884.853,85.000 905.000,105.147 905.000,130.000 C905.000,154.853 884.853,175.000 860.000,175.000 ZM51.000,308.000 C-67.741,308.000 -164.000,211.741 -164.000,93.000 C-164.000,-25.741 -67.741,-122.000 51.000,-122.000 C169.741,-122.000 266.000,-25.741 266.000,93.000 C266.000,211.741 169.741,308.000 51.000,308.000 Z"/>
</svg>