<svg 
 xmlns="http://www.w3.org/2000/svg"
 xmlns:xlink="http://www.w3.org/1999/xlink"
 width="44px" height="36px">
<path fill-rule="evenodd"  fill="rgb(158, 82, 252)"
 d="M32.500,18.160 C31.119,18.160 30.000,17.056 30.000,15.694 C30.000,14.331 31.119,13.227 32.500,13.227 C33.881,13.227 35.000,14.331 35.000,15.694 C35.000,17.056 33.881,18.160 32.500,18.160 ZM22.500,18.160 C21.119,18.160 20.000,17.056 20.000,15.694 C20.000,14.331 21.119,13.227 22.500,13.227 C23.881,13.227 25.000,14.331 25.000,15.694 C25.000,17.056 23.881,18.160 22.500,18.160 ZM12.500,18.160 C11.119,18.160 10.000,17.056 10.000,15.694 C10.000,14.331 11.119,13.227 12.500,13.227 C13.881,13.227 15.000,14.331 15.000,15.694 C15.000,17.056 13.881,18.160 12.500,18.160 Z"/>
<path fill-rule="evenodd"  fill="rgb(205, 205, 205)"
 d="M39.000,30.000 L17.667,30.000 L9.000,36.000 L9.000,30.000 L5.000,30.000 C2.239,30.000 -0.000,27.761 -0.000,25.000 L-0.000,5.000 C-0.000,2.239 2.239,-0.000 5.000,-0.000 L39.000,-0.000 C41.761,-0.000 44.000,2.239 44.000,5.000 L44.000,25.000 C44.000,27.761 41.761,30.000 39.000,30.000 ZM40.812,5.176 C40.812,4.071 39.917,3.176 38.812,3.176 L5.187,3.176 C4.083,3.176 3.187,4.071 3.187,5.176 L3.187,24.855 C3.187,25.960 4.083,26.855 5.187,26.855 L9.000,26.855 L9.000,27.000 L12.000,27.000 L12.000,30.000 L17.000,27.000 L17.000,26.855 L38.812,26.855 C39.917,26.855 40.812,25.960 40.812,24.855 L40.812,5.176 Z"/>
</svg>