<svg 
 xmlns="http://www.w3.org/2000/svg"
 xmlns:xlink="http://www.w3.org/1999/xlink"
 width="45px" height="40px">
<path fill-rule="evenodd"  fill="rgb(205, 205, 205)"
 d="M39.046,40.000 L5.001,40.000 C2.240,40.000 0.001,37.761 0.001,35.000 L0.001,5.000 C0.001,2.239 2.240,-0.000 5.001,-0.000 L39.046,-0.000 C41.808,-0.000 44.046,2.239 44.046,5.000 L44.046,35.000 C44.046,37.761 41.808,40.000 39.046,40.000 ZM40.856,5.187 C40.856,4.083 39.960,3.187 38.856,3.187 L5.192,3.187 C4.087,3.187 3.192,4.083 3.192,5.187 L3.192,34.844 C3.192,35.948 4.087,36.844 5.192,36.844 L38.856,36.844 C39.960,36.844 40.856,35.948 40.856,34.844 L40.856,5.187 Z"/>
<path fill-rule="evenodd"  fill="rgb(158, 82, 252)"
 d="M30.848,29.362 L25.407,12.032 L19.778,12.032 L14.422,29.362 L18.745,29.362 L19.787,25.947 L24.434,25.947 L25.414,29.362 L30.848,29.362 ZM22.095,17.136 L23.499,22.163 L20.692,22.163 L22.095,17.136 Z"/>
</svg>