<svg 
 xmlns="http://www.w3.org/2000/svg"
 xmlns:xlink="http://www.w3.org/1999/xlink"
 width="43px" height="42px">
<path fill-rule="evenodd"  fill="rgb(205, 205, 205)"
 d="M39.834,27.607 L37.005,27.607 L38.999,29.599 C39.863,30.462 39.863,31.862 38.999,32.725 L32.765,38.953 C31.901,39.816 30.500,39.816 29.636,38.953 L27.625,36.945 L27.625,40.000 C27.625,41.104 26.730,42.000 25.625,42.000 L16.393,42.000 C15.288,42.000 14.393,41.104 14.393,40.000 L14.393,36.962 L12.389,38.963 C11.525,39.826 10.124,39.826 9.260,38.963 L3.026,32.735 C2.162,31.872 2.162,30.472 3.026,29.609 L5.030,27.607 L2.216,27.607 C0.994,27.607 0.003,26.617 0.003,25.397 L0.003,16.589 C0.003,15.368 0.994,14.378 2.216,14.378 L5.036,14.378 L3.036,12.381 C2.172,11.517 2.172,10.118 3.036,9.255 L9.270,3.027 C10.134,2.163 11.535,2.163 12.399,3.027 L14.393,5.018 L14.393,2.000 C14.393,0.895 15.288,-0.000 16.393,-0.000 L25.625,-0.000 C26.730,-0.000 27.625,0.895 27.625,2.000 L27.625,5.035 L29.625,3.037 C30.490,2.174 31.891,2.174 32.755,3.037 L38.989,9.265 C39.853,10.128 39.853,11.527 38.989,12.391 L36.999,14.378 L39.834,14.378 C41.056,14.378 42.046,15.368 42.046,16.589 L42.046,25.397 C42.046,26.617 41.056,27.607 39.834,27.607 ZM38.727,17.838 C38.727,17.138 38.562,16.571 37.970,16.571 L35.857,16.571 C35.553,15.554 35.153,14.579 34.657,13.662 L36.142,12.179 C36.472,11.850 36.275,11.243 35.780,10.748 L31.292,6.265 C30.797,5.770 30.278,5.485 29.859,5.903 L28.377,7.384 C27.459,6.889 26.483,6.488 25.465,6.184 L25.465,4.072 C25.465,3.606 24.897,3.316 24.196,3.316 L17.850,3.316 C17.149,3.316 16.581,3.481 16.581,4.072 L16.581,6.185 C15.561,6.490 14.583,6.892 13.663,7.389 L12.165,5.893 C11.747,5.475 11.228,5.760 10.733,6.255 L6.245,10.738 C5.750,11.233 5.421,11.707 5.883,12.169 L7.387,13.672 C6.894,14.586 6.495,15.557 6.192,16.571 L4.079,16.571 C3.488,16.571 3.322,17.138 3.322,17.838 L3.322,24.178 C3.322,24.878 3.425,25.446 4.079,25.446 L6.197,25.446 C6.501,26.459 6.900,27.430 7.395,28.344 L5.895,29.843 C5.477,30.261 5.761,30.779 6.257,31.274 L10.745,35.757 C11.240,36.252 11.715,36.581 12.177,36.119 L13.679,34.619 C14.594,35.112 15.566,35.511 16.581,35.815 L16.581,37.928 C16.581,38.519 17.149,38.684 17.850,38.684 L24.196,38.684 C24.897,38.684 25.465,38.581 25.465,37.928 L25.465,35.815 C26.477,35.513 27.447,35.115 28.361,34.623 L29.848,36.109 C30.177,36.438 30.785,36.242 31.280,35.747 L35.768,31.264 C36.264,30.769 36.548,30.250 36.130,29.833 L34.650,28.354 C35.147,27.437 35.548,26.463 35.853,25.446 L37.970,25.446 C38.437,25.446 38.727,24.878 38.727,24.178 L38.727,17.838 Z"/>
<path fill-rule="evenodd"  fill="rgb(158, 82, 252)"
 d="M21.212,29.844 C16.340,29.844 12.391,25.884 12.391,21.000 C12.391,16.116 16.340,12.156 21.212,12.156 C26.084,12.156 30.034,16.116 30.034,21.000 C30.034,25.884 26.084,29.844 21.212,29.844 ZM21.215,15.485 C18.168,15.485 15.699,17.954 15.699,21.000 C15.699,24.046 18.168,26.515 21.215,26.515 C24.261,26.515 26.731,24.046 26.731,21.000 C26.731,17.954 24.261,15.485 21.215,15.485 Z"/>
</svg>