<svg 
 xmlns="http://www.w3.org/2000/svg"
 xmlns:xlink="http://www.w3.org/1999/xlink"
 width="45px" height="43px">
<path fill-rule="evenodd"  fill="rgb(205, 205, 205)"
 d="M40.000,43.000 L5.000,43.000 C2.239,43.000 -0.000,40.761 -0.000,38.000 L-0.000,18.000 C-0.000,15.239 2.239,13.000 5.000,13.000 L12.000,13.000 L12.000,16.187 L5.187,16.187 C4.083,16.187 3.187,17.083 3.187,18.187 L3.187,37.844 C3.187,38.948 4.083,39.844 5.187,39.844 L39.812,39.844 C40.917,39.844 41.812,38.948 41.812,37.844 L41.812,18.187 C41.812,17.083 40.917,16.187 39.812,16.187 L34.000,16.187 L34.000,13.000 L40.000,13.000 C42.761,13.000 45.000,15.239 45.000,18.000 L45.000,38.000 C45.000,40.761 42.761,43.000 40.000,43.000 Z"/>
<path fill-rule="evenodd"  fill="rgb(158, 82, 252)"
 d="M31.485,11.015 C30.704,11.796 29.438,11.796 28.657,11.015 L25.000,7.358 L25.000,27.000 C25.000,28.104 24.105,29.000 23.000,29.000 C21.895,29.000 21.000,28.104 21.000,27.000 L21.000,7.358 L17.343,11.015 C16.562,11.796 15.296,11.796 14.515,11.015 C13.734,10.234 13.734,8.967 14.515,8.186 L21.586,1.115 C22.367,0.334 23.633,0.334 24.414,1.115 L31.485,8.186 C32.266,8.967 32.266,10.234 31.485,11.015 Z"/>
</svg>